<svg xmlns="http://www.w3.org/2000/svg" viewBox="0 0 530.8 530.8" width="100">
  <path d="M25.12 255.59h-13.2v-38.05H0v-10.78h37v10.78H25.12Zm47.88 0H44v-48.83h29v10.58H57.18V225h14.63v10.58H57.18v9.22H73Zm38.49 0-2.4-9.15H93.22l-2.47 9.15h-14.5l15.93-49h17.61l16.13 49Zm-5.14-20-2.11-8q-.73-2.67-1.78-6.92c-.71-2.82-1.17-4.85-1.39-6.07q-.3 1.69-1.19 5.61T96 235.61Zm46.12 20-10-35.17h-.31q.71 9 .71 14v21.21H131.2v-48.87h17.56L159 241.43h.27l10-34.67h17.6v48.83h-12.19v-25.12c0-1.36.19-4.69.45-10h-.3L165 255.59Zm104.08-25.45q0 12.23-6.73 18.83t-18.92 6.62h-15.8v-48.83H232q11.76 0 18.15 6t6.4 17.38Zm-13.7.46q0-6.71-2.65-9.95t-8.07-3.24h-3.84v27.36h2.94q6 0 8.82-3.49t2.8-10.68Zm51.44 24.99h-29v-48.83h29v10.58h-15.8V225h14.63v10.58h-14.63v9.22h15.8Zm8.55 0v-48.83H316v38.17h18.81v10.66Zm85.51-24.48q0 12.31-6.05 18.73t-17.7 6.42q-11.49 0-17.62-6.45T340.85 231q0-12.19 6.1-18.62t17.72-6.38q11.65 0 17.66 6.38t6.02 18.73Zm-33.6 0q0 14.16 9.85 14.16 5 0 7.43-3.44t2.42-10.72q0-7.32-2.45-10.81a8.37 8.37 0 0 0-7.33-3.49q-9.93 0-9.92 14.3Zm42.41 24.48v-48.83h13.26v48.83Zm45.36 0h-13.19v-38.05H417.4v-10.78h37v10.78h-11.88Zm40.42 0h-13.2v-38.05h-11.92v-10.78h37v10.78h-11.88Zm47.86 0h-29v-48.83h29v10.58H515V225h14.63v10.58H515v9.22h15.8Z"/>
  <path fill="#86bc25" d="M108.85 178.68h46.87c-8.85-7-11-19-4.28-30 0 0 9.67-15.8 30.25-30.87s38.56-19.5 38.56-19.5c15.9-3.93 28.94 6.26 29 22.64l.12 57.72h34.18l-.29-57.87c-.12-16.37 12.85-26.65 28.74-22.8 0 0 18 4.31 38.7 19.23s30.46 30.65 30.46 30.65c7.09 11.39 4.57 23.88-5.14 30.83h47.69a10.62 10.62 0 0 1 7-9.89c-.81-2-1.66-4-2.53-6A10.6 10.6 0 0 1 418.5 144c-1.11-1.87-2.26-3.73-3.43-5.57a10.61 10.61 0 0 1-12.53-17.11c-1.38-1.67-2.81-3.31-4.27-4.94a10.61 10.61 0 0 1-15.06-14.93q-2.44-2.14-5-4.22A10.61 10.61 0 0 1 361 84.79c-1.84-1.17-3.71-2.31-5.58-3.4a10.61 10.61 0 0 1-18.92-9.58c-2-.87-4-1.71-6-2.49a10.61 10.61 0 0 1-20.19-6.49c-2.11-.54-4.24-1-6.36-1.49a10.62 10.62 0 0 1-21-3.23c-2.17-.2-4.35-.37-6.52-.49a10.6 10.6 0 0 1-21.2.09c-2.18.14-4.35.33-6.51.55a10.61 10.61 0 0 1-20.93 3.39c-2.13.48-4.25 1-6.35 1.54a10.61 10.61 0 0 1-20.15 6.6c-2 .8-4 1.65-6 2.53A10.61 10.61 0 0 1 176.43 82c-1.87 1.11-3.73 2.24-5.57 3.42A10.61 10.61 0 0 1 153.75 98c-1.67 1.39-3.31 2.82-4.94 4.28a10.61 10.61 0 0 1-14.93 15.06q-2.15 2.44-4.21 5a10.61 10.61 0 0 1-12.4 17.2c-1.18 1.84-2.31 3.7-3.41 5.57a10.61 10.61 0 0 1-9.58 18.89c-.86 2-1.7 4-2.49 6a10.63 10.63 0 0 1 7.06 8.68Zm315.79 106.03a11 11 0 0 1 .79-1.83h-23.58c-7.71 21.2-18 33.43-18 33.43-10.56 12.52-27.09 11.94-36.75-1.29l-23.45-32.14h-42.93a28.23 28.23 0 0 1 3.68 4.12l35.27 48c9.7 13.2 5.25 29.14-9.88 35.42 0 0-17.11 7.09-42.61 7.19s-42.66-6.89-42.66-6.89c-15.18-6.17-19.74-22.08-10.14-35.35l34.93-48.28a28.67 28.67 0 0 1 3.76-4.25h-42.8l-23.53 32.74c-9.56 13.3-26.09 14-36.74 1.54 0 0-10.71-12.53-18.61-34.28h-24.12a10.58 10.58 0 0 1-2.27 14.8 10.37 10.37 0 0 1-2.73 1.45c.8 2 1.65 4 2.52 6a10.63 10.63 0 0 1 9.73 18.91c1.1 1.87 2.24 3.73 3.42 5.56a10.61 10.61 0 0 1 12.53 17.11c1.39 1.68 2.82 3.32 4.27 4.95a10.61 10.61 0 0 1 15.07 14.92c1.63 1.43 3.29 2.84 5 4.22A10.61 10.61 0 1 1 172 383.19q2.77 1.76 5.58 3.41a10.61 10.61 0 0 1 18.92 9.57c2 .87 4 1.71 6 2.5a10.61 10.61 0 0 1 20.19 6.48c2.11.54 4.24 1 6.37 1.49a10.6 10.6 0 0 1 20.94 3.23c2.17.2 4.35.37 6.52.5a10.61 10.61 0 0 1 21.21-.1c2.17-.14 4.34-.33 6.51-.55a10.61 10.61 0 0 1 20.93-3.39q3.18-.7 6.35-1.53a10.6 10.6 0 0 1 20.14-6.61c2-.8 4-1.65 6-2.53A10.63 10.63 0 1 1 356.6 386q2.81-1.65 5.57-3.42A10.62 10.62 0 0 1 379.28 370c1.67-1.39 3.31-2.82 4.94-4.28a10.61 10.61 0 0 1 14.93-15.06c1.43-1.63 2.83-3.29 4.22-5a10.6 10.6 0 0 1 12.4-17.19q1.75-2.78 3.4-5.58a10.61 10.61 0 0 1 9.58-18.89q1.31-3 2.49-6a10.62 10.62 0 0 1-6.6-13.29Z"/>
  <path d="M50.81 175.85a10.82 10.82 0 0 1-1.17 2.73h121.89l-46.11-14.73c-21.53-6.87-29.49-28.27-17.69-47.55 0 0 13.34-21.8 41.74-42.58s53.2-26.91 53.2-26.91c21.94-5.42 39.93 8.63 40 31.24l.17 82.22a33.63 33.63 0 0 1-4.84 18.31h57.23a33.48 33.48 0 0 1-5.23-18.52l-.42-82.22c-.11-22.6 17.78-36.78 39.76-31.52 0 0 24.85 6 53.4 26.53s42 42.29 42 42.29c11.94 19.19 4.13 40.65-17.35 47.68l-48.18 15.76h126a10.59 10.59 0 0 1 7.13-6q-.93-3.41-1.95-6.78a10.61 10.61 0 1 1-7.07-20c-.89-2.18-1.8-4.34-2.75-6.49a10.61 10.61 0 0 1-9.43-19q-1.71-3.07-3.51-6.11A10.61 10.61 0 0 1 456 96.5q-2.06-2.85-4.22-5.64a10.61 10.61 0 0 1-13.73-16.17c-1.59-1.72-3.23-3.41-4.88-5.09a10.61 10.61 0 0 1-15.57-14.4q-2.82-2.37-5.72-4.66a10.6 10.6 0 0 1-17.2-12.4c-2-1.3-3.95-2.56-5.95-3.79a10.61 10.61 0 0 1-18.57-10.25q-3.17-1.58-6.36-3a10.61 10.61 0 0 1-19.67-7.94q-3.33-1.17-6.69-2.24A10.6 10.6 0 0 1 317 5.38c-2.3-.51-4.61-1-6.91-1.41a10.61 10.61 0 0 1-21-3c-2.34-.22-4.69-.41-7-.56a10.61 10.61 0 0 1-10.89 10.18A10.61 10.61 0 0 1 260.81 0c-2.35.06-4.69.15-7 .28a10.61 10.61 0 0 1-21.1 2.13q-3.48.51-7 1.12A10.61 10.61 0 0 1 205 8.16q-3.39.93-6.77 2a10.61 10.61 0 0 1-20 7.08c-2.17.89-4.34 1.8-6.49 2.75a10.61 10.61 0 1 1-19 9.45q-3.09 1.71-6.12 3.51a10.61 10.61 0 0 1-17.71 11.68c-1.89 1.38-3.78 2.79-5.64 4.23a10.61 10.61 0 0 1-16.16 13.74c-1.72 1.59-3.41 3.23-5.08 4.88A10.61 10.61 0 0 1 87.67 83c-1.51 1.8-3 3.62-4.45 5.47a10.61 10.61 0 0 1-12.42 17.21c-1.29 2-2.56 4-3.79 5.95a10.61 10.61 0 0 1-10.26 18.56q-1.57 3.17-3 6.36a10.61 10.61 0 1 1-8 19.66c-.79 2.22-1.53 4.45-2.25 6.69a10.61 10.61 0 0 1 7.31 12.95ZM459 282.78c-1 3.78-2.06 7.71-3.36 11.76-10.76 33.5-27.23 53-27.23 53-14.56 17.29-37.38 16.49-50.7-1.77l-46-63H202.33l-45.9 63.85c-13.19 18.35-36 19.31-50.69 2.13 0 0-16.61-19.42-27.6-52.84-1.5-4.55-2.75-8.94-3.8-13.14H48.51a10.6 10.6 0 0 1-7.81 12.54c.61 2.27 1.25 4.53 1.94 6.78a10.61 10.61 0 0 1 7.07 20c.89 2.18 1.8 4.35 2.75 6.5a10.61 10.61 0 0 1 9.43 19c1.14 2.05 2.31 4.08 3.51 6.11a10.61 10.61 0 0 1 11.66 17.72q2.07 2.85 4.24 5.64A10.61 10.61 0 0 1 95 393.24c1.59 1.71 3.23 3.41 4.88 5.08a10.61 10.61 0 0 1 15.57 14.4c1.87 1.58 3.79 3.13 5.73 4.66a10.6 10.6 0 0 1 17.19 12.41c2 1.29 4 2.56 6 3.78a10.61 10.61 0 0 1 18.57 10.25q3.17 1.57 6.36 3a10.61 10.61 0 0 1 19.7 7.94q3.33 1.17 6.69 2.24a10.61 10.61 0 0 1 20.48 5.51c2.3.5 4.61 1 6.91 1.4a10.61 10.61 0 0 1 21 3c2.34.23 4.69.41 7 .57a10.61 10.61 0 0 1 21.21.42c2.35 0 4.69-.15 7-.28a10.61 10.61 0 0 1 21.1-2.12c2.33-.34 4.67-.72 7-1.13a10.6 10.6 0 1 1 20.69-4.63q3.4-.93 6.78-1.95a10.61 10.61 0 0 1 20-7.09q3.27-1.32 6.49-2.75a10.61 10.61 0 0 1 19-9.44q3.09-1.71 6.12-3.52a10.61 10.61 0 0 1 17.71-11.67c1.9-1.38 3.77-2.79 5.64-4.24A10.6 10.6 0 1 1 426 405.35q2.58-2.4 5.08-4.89a10.61 10.61 0 0 1 14.32-15.56c1.51-1.79 3-3.62 4.46-5.47a10.6 10.6 0 0 1 12.41-17.19c1.29-2 2.56-3.95 3.79-5.95a10.61 10.61 0 0 1 10.27-18.56c1-2.11 2.06-4.23 3-6.36a10.61 10.61 0 1 1 8-19.66q1.17-3.33 2.24-6.68a10.61 10.61 0 0 1 5.51-20.49c.13-.59.25-1.17.38-1.76ZM326.21 422.3s-23.6 9.79-58.79 9.92-58.86-9.5-58.86-9.5c-20.94-8.51-27.23-30.46-14-48.78l48.2-66.61c13.25-18.32 35-18.4 48.41-.18l48.67 66.28c13.39 18.22 7.25 40.21-13.63 48.87Z"/>
  <path fill="none" stroke="#000" stroke-miterlimit="10" stroke-width="5" d="M49.75 178.58h435.5M48.64 281.67h446.82"/>
</svg>
