<svg xmlns="http://www.w3.org/2000/svg" xml:space="preserve" viewBox="0 0 500 50.3" width="200">
  <path  d="M23.7 49.6H11.2V11.5H0V.8h34.9v10.8H23.7v38zm45.1 0H41.4V.8h27.3v10.6H53.9V19h13.8v10.6H53.9v9.2h14.9v10.8zm36.2 0-2.3-9.1H87.8l-2.3 9.1H71.8l15-49h16.6l15.2 49H105zm-4.8-20-2-8c-.5-1.8-1-4.1-1.7-6.9-.7-2.8-1.1-4.9-1.3-6.1-.2 1.1-.6 3-1.1 5.6-.6 2.6-1.8 7.7-3.7 15.4h9.8zm43.4 20-9.4-35.2h-.3c.4 6 .7 10.7.7 14v21.2h-11V.8h16.5l9.6 34.7h.3L159.4.8H176v48.8h-11.5V24.5c0-1.4.2-4.7.4-10h-.3l-9.3 35.1h-11.7zm98.1-25.5c0 8.2-2.1 14.4-6.3 18.8-4.2 4.4-10.2 6.6-17.8 6.6h-14.9V.8h15.9c7.4 0 13.1 2 17.1 6s6 9.8 6 17.3zm-12.9.5c0-4.5-.8-7.8-2.5-9.9-1.7-2.2-4.2-3.2-7.6-3.2H215v27.4h2.8c3.8 0 6.5-1.2 8.3-3.5 1.8-2.4 2.7-6 2.7-10.8zm48.4 25h-27.3V.8h27.3v10.6h-14.9V19h13.8v10.6h-13.8v9.2h14.9v10.8zm8.1 0V.8h12.4V39h17.7v10.7h-30.1zm80.5-24.5c0 8.2-1.9 14.4-5.7 18.7-3.8 4.3-9.4 6.4-16.7 6.4-7.2 0-12.7-2.2-16.6-6.4C323 39.5 321 33.2 321 25c0-8.1 1.9-14.3 5.7-18.6 3.8-4.3 9.4-6.4 16.7-6.4 7.3 0 12.9 2.1 16.6 6.4 3.9 4.2 5.8 10.5 5.8 18.7zm-31.6 0c0 9.4 3.1 14.2 9.3 14.2 3.1 0 5.5-1.1 7-3.4s2.3-5.9 2.3-10.7c0-4.9-.8-8.5-2.3-10.8-1.6-2.3-4.2-3.7-6.9-3.5-6.3-.1-9.4 4.7-9.4 14.2zm39.9 24.5V.8h12.5v48.8h-12.5zm42.7 0h-12.4V11.5h-11.2V.8H428v10.8h-11.2v38zm38.1 0h-12.4V11.5h-11.2V.8h34.9v10.8H455l-.1 38zm45.1 0h-27.3V.8H500v10.6h-14.9V19h13.8v10.6h-13.8v9.2H500v10.8z"/>
</svg>